<svg width="34" height="25" viewBox="0 0 34 25" fill="none" xmlns="http://www.w3.org/2000/svg">
<rect y="0.5" width="34" height="24" rx="5" fill="#0099FF"/>
<path d="M10.07 9.5H11.77V16.5H9.84L7.21 12.09L7.35 13.57V16.5H5.65V9.5H7.58L10.2 13.91L10.07 12.43V9.5ZM17.9419 11.12H14.8219V12.16H17.6619V13.78H14.8219V14.88H17.9419V16.5H13.1219V9.5H17.9419V11.12ZM26.471 9.5H28.211L26.521 16.5H24.431L23.821 13.97L23.461 11.5L23.291 11.49L22.941 13.97L22.331 16.5H20.231L18.541 9.5H20.291L21.091 12.85L21.301 14.48L21.511 12.85L22.311 9.5H24.441L25.241 12.85L25.461 14.52L25.671 12.85L26.471 9.5Z" fill="white"/>
</svg>
